<svg xmlns="http://www.w3.org/2000/svg" width="1200" height="560" viewBox="0 0 1200 560" role="img" aria-labelledby="title description">
  <title id="title">Acquisition pipeline</title>
  <desc id="description">You or an agent asks papio to run a durable, bounded job. papio tries open-access and licensed APIs or hands the request to your own browser, where login, MFA, and CAPTCHA stay human. The paths converge, then the PDF is quarantined and validated, packaged with immutable provenance, previewed and applied through zotio, and added to the Zotero library.</desc>
  <defs>
    <marker id="arrow-navy" viewBox="0 0 14 14" refX="14" refY="7" markerWidth="14" markerHeight="14" markerUnits="userSpaceOnUse" orient="auto">
      <path class="arrow-ink" d="M 0 0 L 14 7 L 0 14 Z"/>
    </marker>
    <marker id="arrow-coral" viewBox="0 0 14 14" refX="14" refY="7" markerWidth="14" markerHeight="14" markerUnits="userSpaceOnUse" orient="auto">
      <path class="arrow-coral" d="M 0 0 L 14 7 L 0 14 Z"/>
    </marker>
    <style>
      /* Theme palette: only this block differs between variants. */
      .card { fill: #F5F1E8; stroke: #2B2D42; }
      .node, .arrow-ink { fill: #2B2D42; }
      .human-node, .arrow-coral { fill: #E85D4A; }
      .node-label { fill: #F5F1E8; }
      .human-label { fill: #F5F1E8; }
      .header-label { fill: #2B2D42; }
      .flow { stroke: #2B2D42; }
      .human-flow { stroke: #E85D4A; }
      .type { font-family: system-ui, -apple-system, 'Segoe UI', sans-serif; }
      .node-label { font-size: 18px; font-weight: 650; text-anchor: middle; }
      .flow, .human-flow { fill: none; stroke-width: 3.5; stroke-linecap: round; stroke-linejoin: round; }
    </style>
  </defs>

  <rect class="card" x="4" y="4" width="1192" height="552" rx="24" stroke-width="2"/>

  <g class="type">
    <text class="header-label" x="40" y="49" font-size="24" font-weight="750">Acquisition pipeline</text>
    <g aria-label="Legend">
      <path d="M 824 41 H 860" class="flow" marker-end="url(#arrow-navy)"/>
      <text class="header-label" x="873" y="46" font-size="15" font-weight="650">Automated</text>
      <path d="M 984 41 H 1020" class="human-flow" marker-end="url(#arrow-coral)"/>
      <text class="header-label" x="1033" y="46" font-size="15" font-weight="650">Human in the loop</text>
    </g>
    <path d="M 40 70 H 1160" class="flow" opacity="0.18"/>

    <g aria-label="You or an agent">
      <rect class="node" x="40" y="160" width="200" height="80" rx="12"/>
      <text class="node-label" x="140" y="201" dominant-baseline="middle">You or an agent</text>
    </g>

    <g aria-label="papio — durable, bounded jobs">
      <rect class="node" x="330" y="160" width="270" height="80" rx="12"/>
      <text class="node-label" x="465" y="193">
        <tspan x="465" y="193">papio — durable,</tspan>
        <tspan x="465" y="216">bounded jobs</tspan>
      </text>
    </g>

    <path d="M 240 200 H 330" class="flow" marker-end="url(#arrow-navy)"/>

    <g aria-label="Open-access &amp; licensed APIs">
      <rect class="node" x="720" y="105" width="390" height="72" rx="12"/>
      <text class="node-label" x="915" y="142" dominant-baseline="middle">Open-access &amp; licensed APIs</text>
    </g>

    <g aria-label="Your own browser — login, MFA &amp; CAPTCHA stay human">
      <rect class="human-node" x="720" y="215" width="390" height="96" rx="12"/>
      <text class="node-label human-label" x="915" y="255">
        <tspan x="915" y="255">Your own browser — login,</tspan>
        <tspan x="915" y="279">MFA &amp; CAPTCHA stay human</tspan>
      </text>
    </g>

    <path d="M 600 182 H 638 Q 656 182 656 164 V 159 Q 656 141 674 141 H 720" class="flow" marker-end="url(#arrow-navy)"/>
    <path d="M 600 218 H 638 Q 656 218 656 236 V 245 Q 656 263 674 263 H 720" class="human-flow" marker-end="url(#arrow-coral)"/>

    <path d="M 1110 141 H 1125 Q 1155 141 1155 171 V 208" class="flow"/>
    <path d="M 1110 263 H 1125 Q 1155 263 1155 233 V 208" class="human-flow"/>
    <path d="M 1155 208 V 340 Q 1155 370 1125 370 H 1085 Q 1055 370 1055 400 V 420" class="flow" marker-end="url(#arrow-navy)"/>

    <g aria-label="Quarantine &amp; validate the PDF">
      <rect class="node" x="940" y="420" width="230" height="82" rx="12"/>
      <text class="node-label" x="1055" y="453">
        <tspan x="1055" y="453">Quarantine &amp; validate</tspan>
        <tspan x="1055" y="477">the PDF</tspan>
      </text>
    </g>

    <g aria-label="Immutable bundle + provenance">
      <rect class="node" x="610" y="420" width="260" height="82" rx="12"/>
      <text class="node-label" x="740" y="453">
        <tspan x="740" y="453">Immutable bundle +</tspan>
        <tspan x="740" y="477">provenance</tspan>
      </text>
    </g>

    <g aria-label="zotio — preview, then apply">
      <rect class="node" x="300" y="420" width="240" height="82" rx="12"/>
      <text class="node-label" x="420" y="453">
        <tspan x="420" y="453">zotio — preview,</tspan>
        <tspan x="420" y="477">then apply</tspan>
      </text>
    </g>

    <g aria-label="Zotero library">
      <rect class="node" x="30" y="420" width="200" height="82" rx="12"/>
      <text class="node-label" x="130" y="462" dominant-baseline="middle">Zotero library</text>
    </g>

    <path d="M 940 461 H 870" class="flow" marker-end="url(#arrow-navy)"/>
    <path d="M 610 461 H 540" class="flow" marker-end="url(#arrow-navy)"/>
    <path d="M 300 461 H 230" class="flow" marker-end="url(#arrow-navy)"/>
  </g>
</svg>
